<svg width="96" height="48" viewBox="0 0 96 48" fill="none" xmlns="http://www.w3.org/2000/svg">
<path fill-rule="evenodd" clip-rule="evenodd" d="M90.4287 1.72955L87.2189 8.33127L89.0309 7.93289L90.497 9.06996L90.4287 1.72955Z" fill="#D6C2F2"/>
<path fill-rule="evenodd" clip-rule="evenodd" d="M90.9426 7.41154L90.9569 9.1736L92.626 9.10582L95.2734 4.66035L90.9426 7.41154Z" fill="#D6C2F2"/>
<path fill-rule="evenodd" clip-rule="evenodd" d="M87.5276 6.64207L86.7591 8.22763L85.2802 7.45057L84.7953 2.29935L87.5276 6.64207Z" fill="#D6C2F2"/>
<path fill-rule="evenodd" clip-rule="evenodd" d="M88.3982 5.01897L87.8165 6.13849L87.2141 5.25282L88.0763 2.68784L88.3982 5.01897Z" fill="#D6C2F2"/>
<path fill-rule="evenodd" clip-rule="evenodd" d="M90.8904 5.58057L90.9358 6.84139L91.8598 6.29967L92.181 3.61273L90.8904 5.58057Z" fill="#D6C2F2"/>
<path fill-rule="evenodd" clip-rule="evenodd" d="M90.4987 1.41948L90.6355 1.72871L90.3793 1.94934L90.2424 1.6401L90.4987 1.41948Z" fill="#D6C2F2"/>
<path fill-rule="evenodd" clip-rule="evenodd" d="M88.1311 2.3455L88.2924 2.64276L88.0547 2.88332L87.8934 2.58606L88.1311 2.3455Z" fill="#D6C2F2"/>
<path fill-rule="evenodd" clip-rule="evenodd" d="M95.5036 4.36632L95.4852 4.70399L95.1567 4.78428L95.1752 4.44661L95.5036 4.36632Z" fill="#D6C2F2"/>
<path fill-rule="evenodd" clip-rule="evenodd" d="M92.2779 3.27991L92.0048 3.47928L92.1162 3.79851L92.3894 3.59914L92.2779 3.27991Z" fill="#D6C2F2"/>
<path fill-rule="evenodd" clip-rule="evenodd" d="M84.7137 1.93497L84.5856 2.24791L84.8479 2.46135L84.976 2.14841L84.7137 1.93497Z" fill="#D6C2F2"/>
<path d="M14.1797 8.8376C10.1236 8.8376 7.41961 12.4979 7.41961 12.4979V9.0684L0 10.2555L0.131896 11.0469C1.08821 11.0469 1.64878 11.5746 1.64878 12.333V24.8639C1.64878 25.7872 0.923328 26.5127 0 26.5127V27.3371H9.06839V26.5127C8.14507 26.5127 7.41961 25.7872 7.41961 24.8639V14.1467C7.55151 13.9818 8.87052 12.0363 10.4864 12.0363C11.5746 12.0363 12.366 12.7947 12.366 13.6191V24.8639C12.366 25.7872 11.6405 26.5127 10.7172 26.5127V27.3371H19.7856V26.5127C18.8622 26.5127 18.1368 25.7872 18.1368 24.8639V12.5638C18.1368 11.6076 17.5762 8.8376 14.1797 8.8376V8.8376ZM30.6676 8.8376C24.1384 8.8376 21.0057 13.5202 21.0057 18.3017C21.0057 23.0832 24.0724 27.6998 30.6017 27.6998C37.0979 27.6998 40.2966 23.0172 40.2966 18.2357C40.2966 13.4542 37.1639 8.8376 30.6676 8.8376V8.8376ZM30.6346 26.051C27.6009 26.051 26.7764 21.8301 26.7764 18.1038C26.7764 14.4105 27.6339 10.4864 30.6346 10.4864C33.6684 10.4864 34.5258 14.4435 34.5258 18.1698C34.5258 21.8631 33.6684 26.051 30.6346 26.051V26.051ZM55.2677 8.8376C52.0361 8.8376 49.6618 11.0799 48.8374 11.9703V0L41.4178 1.18718L41.5497 1.97855C42.3411 1.87965 43.0666 2.47321 43.0666 3.26464V24.9299C43.0666 25.7213 42.3411 26.3478 41.5497 26.2159L41.4178 27.0403L44.6824 26.5127C45.5398 26.7765 49.1672 28.0955 52.6296 27.6668C58.5653 26.9414 60.0492 21.0387 60.0492 17.0816C60.0492 13.9488 58.6643 8.8376 55.2677 8.8376V8.8376ZM50.75 26.117C48.8044 26.117 48.8374 24.3692 48.8374 24.3692V13.5201C49.3321 12.9266 50.3873 11.9044 51.5744 11.9044C55.9273 11.9044 55.1028 26.117 50.75 26.117V26.117ZM76.0755 9.29926C73.4704 7.78237 70.7334 9.89282 68.7879 12.333V9.0684L61.3683 10.2555L61.5001 11.0469C62.2916 10.948 63.017 11.5416 63.017 12.333V24.8639C63.017 25.7872 62.2916 26.5127 61.3683 26.5127V27.3371H70.4366V26.5127C69.5133 26.5127 68.7879 25.7872 68.7879 24.8639V14.8062C70.6675 12.1681 73.8991 9.23328 73.2726 11.5746C72.778 13.2893 73.6683 14.6743 75.2512 14.6743C77.8563 14.6743 78.3509 10.6183 76.0755 9.29926V9.29926ZM87.6831 8.8376C82.209 8.8376 78.4498 13.3553 78.4498 18.4666C78.4498 23.7757 82.275 27.6998 87.5182 27.6998C90.7499 27.6998 93.7507 25.5234 94.9708 22.028L94.674 21.896C93.5528 23.9405 91.7391 24.6001 89.8924 24.666C86.397 24.798 84.2536 21.6982 84.2536 17.4443H95.4654C95.5973 12.4979 92.4646 8.8376 87.6831 8.8376ZM84.3525 16.1252C84.3525 12.7287 85.7705 10.5194 87.5511 10.5194C89.3319 10.5194 90.7499 12.7287 90.7499 16.1252H84.3525V16.1252Z" fill="#996DFF"/>
<path d="M5.84449 39.729C5.29691 40.0694 4.85297 40.5355 4.51261 41.1275C4.39424 41.3347 4.33503 41.5197 4.33503 41.6825C4.33503 41.7713 4.3646 41.8489 4.42382 41.9156C4.48303 41.9821 4.53482 42.0154 4.57918 42.0154C4.69761 42.0154 4.8604 41.9192 5.06755 41.7269C5.60034 41.1645 5.8667 40.543 5.8667 39.8622L5.84449 39.729ZM4.37945 35.5114C5.77049 34.7715 6.46601 34.1204 6.46601 33.558C6.46601 33.2324 6.27365 33.0696 5.88886 33.0696C5.5337 33.0696 5.10455 33.2436 4.60139 33.5913C4.09824 33.9391 3.84666 34.3127 3.84666 34.7123C3.84666 34.9195 3.90959 35.0786 4.03537 35.1896C4.16116 35.3006 4.24253 35.3746 4.27953 35.4116C4.31653 35.4486 4.34982 35.4818 4.37945 35.5114V35.5114ZM4.51261 42.9477C4.39424 42.9477 4.26103 42.9255 4.11303 42.8812C3.68387 42.6148 3.4693 42.2596 3.4693 41.8156C3.4693 41.2977 3.62472 40.8168 3.93545 40.3728C4.4386 39.6772 5.02318 39.1445 5.68913 38.7746C5.48191 38.0642 4.97876 37.3243 4.17966 36.5547C3.26214 37.0135 2.28541 37.4427 1.24953 37.8422L1.0941 37.8644C0.842525 37.8644 0.716736 37.7238 0.716736 37.4427C0.716736 37.2502 0.812948 37.1023 1.00531 36.9987C1.92283 36.6435 2.77378 36.2884 3.55808 35.9332C3.14372 35.5632 2.92178 35.1637 2.89214 34.7345C2.93657 34.0537 3.31022 33.4655 4.01316 32.9698C4.71611 32.474 5.43755 32.2261 6.17743 32.2261C6.90259 32.2261 7.29474 32.6553 7.35395 33.5136C7.27995 34.5199 6.49565 35.3931 5.00097 36.133L5.24512 36.4216C5.8667 37.0727 6.28107 37.7164 6.48822 38.3528C7.31695 37.9976 8.22705 37.7534 9.21857 37.6203C10.95 37.3983 12.1487 37.2872 12.8147 37.2872C13.303 37.2577 13.895 37.1689 14.5905 37.0209H14.6793C14.8716 37.0209 14.9901 37.1467 15.0344 37.3983L15.0566 37.7756C14.7163 37.968 13.858 38.1086 12.4817 38.1974C9.7143 38.3453 7.78311 38.6931 6.68801 39.2407C6.71759 39.3739 6.73244 39.5293 6.73244 39.7069C6.73244 40.2248 6.62144 40.7428 6.39943 41.2607C6.08864 41.9562 5.65949 42.4668 5.11197 42.7924C4.91955 42.8959 4.71982 42.9477 4.51261 42.9477V42.9477ZM18.8081 40.728C18.2013 40.728 17.5576 40.6762 16.8768 40.5725C15.9445 40.469 15.2342 39.9954 14.7458 39.1519C14.5978 38.8264 14.5238 38.4933 14.5238 38.153C14.5238 37.7534 14.6201 37.3465 14.8124 36.9321C15.0936 36.207 15.7078 35.0897 16.6549 33.5802C15.9002 33.5358 15.138 33.4174 14.3685 33.2251C14.1613 33.1659 14.0577 33.0401 14.0577 32.8477C14.0577 32.7293 14.0947 32.622 14.1687 32.5258C14.2427 32.4296 14.3463 32.3816 14.4795 32.3816H14.5905C15.4636 32.5887 16.3293 32.7071 17.1876 32.7367C17.5872 32.1151 18.0089 31.5084 18.4529 30.9165V30.8942C19.0004 30.1247 19.5628 29.37 20.14 28.63C20.9539 27.6829 21.8344 26.8024 22.7815 25.9885C22.8999 25.9145 23.0257 25.8775 23.1589 25.8775C23.3068 25.8775 23.4105 25.9515 23.4696 26.0995C23.5584 26.3067 23.6028 26.5213 23.6028 26.7432C23.6028 27.1576 23.366 27.7422 22.8925 28.4969L22.6927 28.8298C21.8344 30.2505 20.9021 31.5454 19.8958 32.7145L27.2211 32.5369C27.5023 32.5369 27.6429 32.6775 27.6429 32.9586C27.6429 33.373 25.1271 33.5802 20.0955 33.5802L19.1189 33.6024C17.9646 34.9195 16.7659 36.1996 15.5228 37.4427C15.434 37.6646 15.4044 37.8792 15.434 38.0864C15.4636 38.5156 15.6189 38.8781 15.9002 39.1741C16.2109 39.4997 16.6105 39.6847 17.0988 39.729C17.4392 39.7734 17.7722 39.803 18.0977 39.8178H19.0744C23.9136 39.7882 28.9673 38.8781 34.2357 37.0875L34.3688 37.0653C34.4872 37.0653 34.5834 37.1097 34.6574 37.1985C34.7314 37.2872 34.7684 37.3835 34.7684 37.487C34.7684 37.709 34.6648 37.857 34.4577 37.931C30.1512 39.4701 25.7042 40.3654 21.1166 40.617L20.4951 40.6613C19.9328 40.691 19.3704 40.7132 18.8081 40.728V40.728ZM18.7193 32.7589C20.0955 31.1755 21.2129 29.629 22.0712 28.1195L22.2487 27.8532C22.3672 27.6756 22.456 27.5202 22.5152 27.387C21.3756 28.4525 20.2805 29.7548 19.2298 31.2938L18.2309 32.7589H18.7193ZM17.0988 34.5569L17.9424 33.6246H17.676L17.0988 34.5569V34.5569ZM34.8127 38.6413C35.0792 38.6413 35.3973 38.5673 35.7673 38.4193C36.5072 38.1234 37.2027 37.746 37.8539 37.2872C37.6023 37.1245 37.2694 37.0431 36.855 37.0431C36.4702 37.0431 35.9338 37.1837 35.2456 37.4648C34.5575 37.746 34.2134 37.9976 34.2134 38.2196C34.2134 38.2936 34.243 38.3676 34.3022 38.4416C34.4058 38.5748 34.576 38.6413 34.8127 38.6413V38.6413ZM34.5242 39.5959C33.7546 39.5959 33.3403 39.2037 33.2811 38.4193C33.2959 37.8274 33.5401 37.3909 34.0137 37.1097C35.0643 36.4882 36.0781 36.1774 37.0548 36.1774C37.5727 36.1774 38.0611 36.3328 38.5198 36.6435C38.5938 36.7027 38.6826 36.7323 38.7862 36.7323C39.0822 36.7323 39.2301 36.9173 39.2301 37.2872C39.2301 38.1012 39.7851 38.5081 40.895 38.5081C42.4636 38.5081 44.4985 38.0494 46.9995 37.1319C47.2806 37.0283 47.4582 36.9765 47.5322 36.9765C47.6506 36.9765 47.7505 37.0283 47.8318 37.1319C47.9133 37.2355 47.954 37.339 47.954 37.4427C47.954 37.6498 47.8503 37.7904 47.6432 37.8644C45.7194 38.5451 43.7512 39.0483 41.7385 39.3739C41.4722 39.4331 41.2058 39.4627 40.9394 39.4627C40.3474 39.4627 39.7777 39.3073 39.2301 38.9965C38.7862 38.6709 38.5198 38.3306 38.431 37.9754C37.6319 38.5821 36.6922 39.0557 35.6119 39.3961C35.1531 39.5293 34.7906 39.5959 34.5242 39.5959V39.5959ZM72.7491 38.9521C70.9732 38.9521 69.5156 38.2122 68.376 36.7323C67.6213 35.7112 66.8814 35.2007 66.1563 35.2007C65.6087 35.2007 64.9502 35.5706 64.1806 36.3106C63.7515 36.7545 63.2853 37.0949 62.7822 37.3317C62.3678 37.3317 62.1236 37.0653 62.0496 36.5325C61.872 35.8074 61.4059 35.4078 60.6511 35.3338C60.0148 35.3338 59.2971 35.6964 58.4979 36.4216C57.2697 37.6498 56.3374 38.264 55.701 38.264C55.1239 38.264 54.8353 37.6868 54.8353 36.5325C54.8353 36.1478 54.8797 35.7704 54.9685 35.4004C55.0573 34.7937 55.1017 34.3497 55.1017 34.0686C55.1017 33.9502 55.0425 33.891 54.9241 33.891L53.0817 35.0009C51.3798 36.1108 49.6188 37.0431 47.7986 37.7978L47.6653 37.82C47.399 37.82 47.2658 37.6795 47.2658 37.3983C47.2658 37.2059 47.3546 37.0579 47.5322 36.9543C49.3228 36.2144 51.0321 35.2968 52.6599 34.2017C52.7635 34.1425 52.8819 34.0612 53.0151 33.9576C53.9622 33.2917 54.6947 32.9586 55.2127 32.9586C55.7158 32.9735 55.9674 33.3804 55.9674 34.1795C55.9674 34.6087 55.9304 35.0379 55.8564 35.4671C55.7972 35.7778 55.7528 36.1256 55.7232 36.5104C55.7232 36.8951 55.7528 37.1467 55.812 37.2651L55.9452 37.2872L56.0784 37.2429C56.4188 37.0653 56.8331 36.7471 57.3215 36.2884C57.8838 35.7704 58.3796 35.3486 58.8087 35.0231C59.3711 34.6383 59.9556 34.446 60.5624 34.446C61.1247 34.446 61.6279 34.6309 62.0718 35.0009C62.4862 35.3116 62.7748 35.7334 62.9375 36.2662C63.1003 36.133 63.3149 35.9332 63.5813 35.6668C64.3656 34.8825 65.1795 34.4385 66.0231 34.335C67.1774 34.335 68.1911 34.9639 69.0642 36.2218C69.9817 37.4057 71.1952 38.0198 72.7046 38.0642C74.2881 38.0198 75.8124 37.6572 77.2774 36.9765L77.4328 36.9543C77.714 36.9543 77.8768 37.0949 77.9212 37.376C77.9212 37.5537 77.8398 37.6868 77.677 37.7756C76.3303 38.3676 74.9245 38.7449 73.4594 38.9077C73.2078 38.9373 72.971 38.9521 72.7491 38.9521V38.9521ZM78.7203 47.7425H78.6537C78.5353 47.7425 78.428 47.7018 78.3318 47.6204C78.2356 47.5391 78.1875 47.4318 78.1875 47.2986V47.2098C78.6611 45.3304 79.2456 43.4953 79.9412 41.7046C80.2076 40.8315 80.4665 39.951 80.7181 39.0631C81.2065 37.4353 81.4581 36.5622 81.4728 36.4437C81.4728 36.3994 81.4285 36.3772 81.3397 36.3772H81.273C81.1695 36.3772 80.9919 36.4289 80.7403 36.5325C80.3703 36.6213 79.7192 36.8729 78.7869 37.2872C77.8842 37.7016 77.3588 37.9088 77.2108 37.9088C77.0924 37.9088 76.9962 37.8607 76.9222 37.7645C76.8483 37.6683 76.8113 37.561 76.8113 37.4427C76.8113 37.2502 76.9149 37.1097 77.122 37.0209C77.566 36.8581 78.0173 36.6732 78.4761 36.4659C79.2901 36.0664 80.1336 35.7556 81.0067 35.5336C81.2287 35.4744 81.4655 35.4448 81.717 35.4448C81.9982 35.4448 82.2128 35.5706 82.3608 35.8222C82.4051 35.9258 82.4274 36.0294 82.4274 36.133V36.1996L82.3386 36.6213L82.272 36.9099C82.3016 36.8507 82.6715 36.5325 83.3819 35.9554C84.0182 35.4078 84.7581 35.1341 85.6016 35.1341C86.5044 35.1341 86.9557 35.5114 86.9557 36.2662C86.9557 36.7101 86.8077 37.1245 86.5118 37.5093C87.3701 37.6573 88.4578 37.7313 89.7749 37.7313C90.0857 37.7313 90.6295 37.7201 91.4064 37.6979C92.1834 37.6758 93.1638 37.4427 94.3476 36.9987L94.4809 36.9765C94.614 36.9765 94.7176 37.0283 94.7916 37.1319C94.8508 37.2207 94.8804 37.3169 94.8804 37.4205V37.487C94.8804 37.6498 94.7916 37.7756 94.614 37.8644C93.1045 38.3823 91.5729 38.6413 90.019 38.6413C89.3087 38.6413 87.9028 38.5451 85.8014 38.3528C85.3131 38.8263 84.8691 39.0631 84.4695 39.0631C84.2772 39.0631 84.1033 38.9928 83.9479 38.8522C83.7925 38.7116 83.7148 38.5526 83.7148 38.375C83.7148 38.227 83.7592 38.079 83.848 37.931C84.1144 37.561 84.5731 37.376 85.2243 37.376L85.4685 37.3983C85.6756 37.1615 85.8532 36.8803 86.0012 36.5547C86.0456 36.4512 86.0678 36.3772 86.0678 36.3328C86.0678 36.2439 86.016 36.1736 85.9124 36.1219C85.8089 36.0701 85.7126 36.0368 85.6239 36.022C85.5055 36.022 85.3649 36.0442 85.2021 36.0886C84.3882 36.2958 83.7075 36.7175 83.1599 37.3539C82.3756 38.3158 81.6282 39.7734 80.9179 41.7269L80.7847 42.0376C79.6452 45.7965 78.9571 47.6981 78.7203 47.7425V47.7425Z" fill="#D6C2F2"/>
</svg>
