<svg width="160" height="80" viewBox="0 0 160 80" fill="none" xmlns="http://www.w3.org/2000/svg">
<path fill-rule="evenodd" clip-rule="evenodd" d="M151.04 2.88881L145.678 13.9154L148.705 13.25L151.154 15.1492L151.04 2.88881Z" fill="#D6C2F2"/>
<path fill-rule="evenodd" clip-rule="evenodd" d="M151.898 12.3792L151.922 15.3223L154.71 15.2091L159.132 7.78401L151.898 12.3792Z" fill="#D6C2F2"/>
<path fill-rule="evenodd" clip-rule="evenodd" d="M146.194 11.094L144.91 13.7423L142.44 12.4444L141.63 3.84052L146.194 11.094Z" fill="#D6C2F2"/>
<path fill-rule="evenodd" clip-rule="evenodd" d="M147.648 8.38301L146.677 10.2529L145.67 8.77361L147.111 4.48941L147.648 8.38301Z" fill="#D6C2F2"/>
<path fill-rule="evenodd" clip-rule="evenodd" d="M151.811 9.32101L151.887 11.4269L153.43 10.5221L153.966 6.03421L151.811 9.32101Z" fill="#D6C2F2"/>
<path fill-rule="evenodd" clip-rule="evenodd" d="M151.157 2.37091L151.385 2.88741L150.957 3.25591L150.729 2.73941L151.157 2.37091Z" fill="#D6C2F2"/>
<path fill-rule="evenodd" clip-rule="evenodd" d="M147.202 3.9176L147.471 4.4141L147.074 4.8159L146.805 4.3194L147.202 3.9176Z" fill="#D6C2F2"/>
<path fill-rule="evenodd" clip-rule="evenodd" d="M159.516 7.29291L159.485 7.85691L158.937 7.99101L158.968 7.42701L159.516 7.29291Z" fill="#D6C2F2"/>
<path fill-rule="evenodd" clip-rule="evenodd" d="M154.128 5.4783L153.672 5.8113L153.858 6.3445L154.314 6.0115L154.128 5.4783Z" fill="#D6C2F2"/>
<path fill-rule="evenodd" clip-rule="evenodd" d="M141.494 3.2319L141.28 3.7546L141.718 4.11111L141.932 3.58841L141.494 3.2319Z" fill="#D6C2F2"/>
<path d="M23.6838 14.7611C16.9091 14.7611 12.3927 20.8748 12.3927 20.8748V15.1466L0 17.1294L0.2203 18.4513C1.8176 18.4513 2.7539 19.3326 2.7539 20.5994V41.5292C2.7539 43.0714 1.5422 44.2831 0 44.2831V45.6601H15.1466V44.2831C13.6044 44.2831 12.3927 43.0714 12.3927 41.5292V23.6287C12.613 23.3533 14.8161 20.1037 17.515 20.1037C19.3326 20.1037 20.6544 21.3705 20.6544 22.7474V41.5292C20.6544 43.0714 19.4427 44.2831 17.9005 44.2831V45.6601H33.0471V44.2831C31.5049 44.2831 30.2932 43.0714 30.2932 41.5292V20.9849C30.2932 19.3877 29.3569 14.7611 23.6838 14.7611V14.7611ZM51.223 14.7611C40.3174 14.7611 35.085 22.5822 35.085 30.5686C35.085 38.555 40.2073 46.266 51.1128 46.266C61.9633 46.266 67.3059 38.4448 67.3059 30.4584C67.3059 22.4721 62.0734 14.7611 51.223 14.7611V14.7611ZM51.1679 43.512C46.1007 43.512 44.7237 36.462 44.7237 30.2381C44.7237 24.0693 46.1558 17.515 51.1679 17.515C56.2351 17.515 57.6672 24.1244 57.6672 30.3483C57.6672 36.5171 56.2351 43.512 51.1679 43.512V43.512ZM92.3116 14.7611C86.9139 14.7611 82.9482 18.5064 81.5713 19.9935V0L69.1786 1.9829L69.3989 3.3047C70.7208 3.1395 71.9325 4.1309 71.9325 5.4528V41.6394C71.9325 42.9613 70.7208 44.0077 69.3989 43.7874L69.1786 45.1644L74.6314 44.2831C76.0634 44.7238 82.1221 46.9269 87.9053 46.2109C97.8194 44.9992 100.298 35.1401 100.298 28.5307C100.298 23.2982 97.9847 14.7611 92.3116 14.7611V14.7611ZM84.7658 43.6222C81.5162 43.6222 81.5713 40.703 81.5713 40.703V22.5822C82.3975 21.5908 84.16 19.8834 86.1428 19.8834C93.4132 19.8834 92.0362 43.6222 84.7658 43.6222V43.6222ZM127.066 15.5322C122.715 12.9986 118.143 16.5236 114.894 20.5994V15.1466L102.501 17.1294L102.721 18.4513C104.043 18.2861 105.255 19.2775 105.255 20.5994V41.5292C105.255 43.0714 104.043 44.2831 102.501 44.2831V45.6601H117.648V44.2831C116.105 44.2831 114.894 43.0714 114.894 41.5292V24.7303C118.033 20.324 123.431 15.422 122.384 19.3326C121.558 22.1967 123.045 24.51 125.689 24.51C130.04 24.51 130.867 17.7353 127.066 15.5322V15.5322ZM146.454 14.7611C137.311 14.7611 131.032 22.3068 131.032 30.844C131.032 39.7116 137.421 46.266 146.178 46.266C151.576 46.266 156.588 42.6308 158.626 36.7925L158.13 36.5721C156.258 39.987 153.228 41.0886 150.144 41.1987C144.306 41.4191 140.726 36.2417 140.726 29.1366H159.452C159.673 20.8748 154.44 14.7611 146.454 14.7611ZM140.891 26.9334C140.891 21.2603 143.259 17.5701 146.233 17.5701C149.208 17.5701 151.576 21.2603 151.576 26.9334H140.891V26.9334Z" fill="#996DFF"/>
<path d="M9.76184 66.3579C8.84724 66.9264 8.10574 67.705 7.53724 68.6938C7.33954 69.0398 7.24064 69.3488 7.24064 69.6207C7.24064 69.769 7.29004 69.8987 7.38894 70.01C7.48784 70.1212 7.57434 70.1768 7.64844 70.1768C7.84624 70.1768 8.11814 70.0161 8.46414 69.6948C9.35404 68.7555 9.79894 67.7174 9.79894 66.5804L9.76184 66.3579ZM7.31484 59.3134C9.63824 58.0775 10.7999 56.99 10.7999 56.0507C10.7999 55.5069 10.4786 55.235 9.83594 55.235C9.24274 55.235 8.52594 55.5255 7.68554 56.1063C6.84514 56.6872 6.42494 57.3113 6.42494 57.9787C6.42494 58.3247 6.53004 58.5904 6.74014 58.7758C6.95024 58.9612 7.08614 59.0848 7.14794 59.1466C7.20974 59.2084 7.26534 59.264 7.31484 59.3134V59.3134ZM7.53724 71.734C7.33954 71.734 7.11704 71.6969 6.86984 71.6228C6.15304 71.1779 5.79464 70.5846 5.79464 69.8431C5.79464 68.978 6.05424 68.1747 6.57324 67.4332C7.41364 66.2714 8.39004 65.3816 9.50234 64.7637C9.15624 63.5772 8.31584 62.3413 6.98114 61.056C5.44864 61.8223 3.81724 62.5391 2.08704 63.2064L1.82744 63.2435C1.40724 63.2435 1.19714 63.0087 1.19714 62.5391C1.19714 62.2177 1.35784 61.9706 1.67914 61.7975C3.21164 61.2043 4.63294 60.6111 5.94294 60.0179C5.25084 59.3999 4.88014 58.7326 4.83064 58.0157C4.90484 56.8787 5.52894 55.8962 6.70304 55.0682C7.87714 54.2401 9.08214 53.8261 10.3179 53.8261C11.5291 53.8261 12.1841 54.5429 12.283 55.9765C12.1594 57.6573 10.8494 59.1157 8.35294 60.3516L8.76074 60.8336C9.79894 61.9211 10.491 62.9963 10.837 64.0592C12.2212 63.466 13.7413 63.0581 15.3974 62.8357C18.2894 62.4649 20.2915 62.2795 21.4038 62.2795C22.2195 62.2301 23.2082 62.0818 24.3699 61.8346H24.5182C24.8395 61.8346 25.0373 62.0447 25.1114 62.4649L25.1485 63.0952C24.58 63.4165 23.1464 63.6514 20.8476 63.7997C16.2254 64.0468 12.9998 64.6277 11.1707 65.5423C11.2201 65.7647 11.2449 66.0243 11.2449 66.3209C11.2449 67.186 11.0595 68.0511 10.6887 68.9162C10.1696 70.0779 9.45284 70.9307 8.53834 71.4745C8.21694 71.6475 7.88334 71.734 7.53724 71.734V71.734ZM31.4144 68.0264C30.401 68.0264 29.3258 67.9399 28.1887 67.7668C26.6315 67.5938 25.4451 66.8029 24.6294 65.394C24.3822 64.8502 24.2586 64.294 24.2586 63.7255C24.2586 63.0581 24.4193 62.3784 24.7406 61.6863C25.2103 60.4752 26.2361 58.609 27.818 56.0878C26.5574 56.0136 25.2844 55.8159 23.9991 55.4946C23.6531 55.3957 23.48 55.1856 23.48 54.8643C23.48 54.6665 23.5418 54.4873 23.6654 54.3266C23.789 54.166 23.962 54.0857 24.1845 54.0857H24.3699C25.8282 54.4317 27.2742 54.6294 28.7078 54.6789C29.3752 53.6407 30.0796 52.6273 30.8212 51.6386V51.6015C31.7357 50.3162 32.675 49.0556 33.639 47.8197C34.9984 46.2378 36.4691 44.7671 38.0511 43.4076C38.2488 43.2841 38.4589 43.2223 38.6814 43.2223C38.9285 43.2223 39.1016 43.3459 39.2004 43.593C39.3487 43.9391 39.4229 44.2975 39.4229 44.6682C39.4229 45.3603 39.0274 46.3367 38.2365 47.5973L37.9028 48.1534C36.4691 50.5263 34.9119 52.6891 33.2311 54.6418L45.4663 54.3452C45.936 54.3452 46.1708 54.58 46.1708 55.0496C46.1708 55.7417 41.9688 56.0878 33.5648 56.0878L31.9335 56.1249C30.0055 58.3247 28.0034 60.4628 25.9271 62.5391C25.7788 62.9098 25.7293 63.2682 25.7788 63.6143C25.8282 64.3311 26.0877 64.9367 26.5574 65.431C27.0765 65.9748 27.7438 66.2838 28.5595 66.3579C29.128 66.4321 29.6842 66.4815 30.2279 66.5062H31.8593C39.942 66.4568 48.383 64.9367 57.1825 61.9458L57.4049 61.9088C57.6027 61.9088 57.7634 61.9829 57.8869 62.1312C58.0105 62.2795 58.0723 62.4402 58.0723 62.6132C58.0723 62.984 57.8993 63.2312 57.5533 63.3548C50.3604 65.9254 42.9328 67.4208 35.2703 67.841L34.2322 67.9151C33.2929 67.9646 32.3537 68.0017 31.4144 68.0264V68.0264ZM31.2661 54.716C33.5648 52.0712 35.431 49.4882 36.8646 46.967L37.1612 46.5221C37.359 46.2255 37.5073 45.9659 37.6062 45.7435C35.7029 47.5231 33.8738 49.6983 32.1188 52.2689L30.4504 54.716H31.2661ZM28.5595 57.7191L29.9684 56.1619H29.5235L28.5595 57.7191V57.7191ZM58.1464 64.5412C58.5914 64.5412 59.1228 64.4176 59.7407 64.1704C60.9766 63.6761 62.1383 63.0458 63.2259 62.2795C62.8057 62.0076 62.2496 61.8717 61.5575 61.8717C60.9148 61.8717 60.0188 62.1065 58.8694 62.5761C57.7201 63.0458 57.1454 63.466 57.1454 63.8367C57.1454 63.9603 57.1948 64.0839 57.2937 64.2075C57.4667 64.43 57.751 64.5412 58.1464 64.5412V64.5412ZM57.6644 66.1355C56.3791 66.1355 55.687 65.4805 55.5882 64.1704C55.6129 63.1817 56.0207 62.4526 56.8117 61.9829C58.5666 60.9448 60.2598 60.4257 61.8912 60.4257C62.7563 60.4257 63.572 60.6853 64.3382 61.2043C64.4618 61.3032 64.6101 61.3526 64.7831 61.3526C65.2775 61.3526 65.5246 61.6616 65.5246 62.2795C65.5246 63.639 66.4516 64.3187 68.3054 64.3187C70.9254 64.3187 74.3241 63.5525 78.5014 62.02C78.971 61.847 79.2676 61.7605 79.3912 61.7605C79.589 61.7605 79.7558 61.847 79.8917 62.02C80.0277 62.193 80.0957 62.366 80.0957 62.5391C80.0957 62.8851 79.9226 63.1199 79.5766 63.2435C76.3633 64.3805 73.0759 65.2209 69.7143 65.7647C69.2694 65.8636 68.8244 65.913 68.3795 65.913C67.3908 65.913 66.4392 65.6535 65.5246 65.1344C64.7831 64.5906 64.3382 64.0221 64.1899 63.4289C62.8551 64.4423 61.2856 65.2333 59.4812 65.8018C58.7149 66.0243 58.1094 66.1355 57.6644 66.1355V66.1355ZM121.51 65.0603C118.544 65.0603 116.109 63.8244 114.206 61.3526C112.945 59.6471 111.709 58.7944 110.498 58.7944C109.584 58.7944 108.484 59.4123 107.199 60.6482C106.482 61.3897 105.703 61.9582 104.863 62.3537C104.171 62.3537 103.763 61.9088 103.639 61.0189C103.343 59.8078 102.564 59.1404 101.303 59.0168C100.241 59.0168 99.0417 59.6224 97.7069 60.8336C95.6554 62.8851 94.0982 63.9109 93.0353 63.9109C92.0713 63.9109 91.5893 62.9469 91.5893 61.0189C91.5893 60.3763 91.6635 59.746 91.8118 59.128C91.9601 58.1146 92.0342 57.3731 92.0342 56.9035C92.0342 56.7057 91.9354 56.6068 91.7376 56.6068L88.6603 58.4607C85.8178 60.3145 82.8764 61.8717 79.8361 63.1323L79.6136 63.1694C79.1687 63.1694 78.9463 62.9346 78.9463 62.4649C78.9463 62.1436 79.0946 61.8964 79.3912 61.7234C82.382 60.4875 85.2369 58.955 87.9558 57.1259C88.1289 57.027 88.3266 56.8911 88.5491 56.7181C90.131 55.6058 91.3545 55.0496 92.2196 55.0496C93.06 55.0744 93.4802 55.7541 93.4802 57.0888C93.4802 57.8057 93.4184 58.5225 93.2948 59.2393C93.196 59.7583 93.1218 60.3392 93.0724 60.9819C93.0724 61.6245 93.1218 62.0447 93.2207 62.2425L93.4431 62.2795L93.6656 62.2054C94.2341 61.9088 94.9262 61.3773 95.7419 60.6111C96.6811 59.746 97.5092 59.0415 98.226 58.4977C99.1653 57.8551 100.142 57.5338 101.155 57.5338C102.094 57.5338 102.935 57.8427 103.676 58.4607C104.368 58.9797 104.85 59.6842 105.122 60.574C105.394 60.3516 105.753 60.0179 106.197 59.573C107.508 58.2629 108.867 57.5214 110.276 57.3484C112.204 57.3484 113.897 58.3989 115.355 60.4999C116.888 62.4773 118.915 63.5031 121.436 63.5772C124.081 63.5031 126.627 62.8975 129.074 61.7605L129.333 61.7234C129.803 61.7234 130.075 61.9582 130.149 62.4278C130.149 62.7245 130.013 62.9469 129.741 63.0952C127.492 64.0839 125.144 64.7142 122.696 64.9861C122.276 65.0355 121.881 65.0603 121.51 65.0603V65.0603ZM131.484 79.7425H131.372C131.175 79.7425 130.995 79.6745 130.835 79.5386C130.674 79.4027 130.594 79.2235 130.594 79.001V78.8527C131.385 75.7136 132.361 72.6486 133.523 69.6577C133.968 68.1994 134.4 66.7287 134.82 65.2456C135.636 62.5267 136.056 61.0684 136.081 60.8706C136.081 60.7965 136.007 60.7594 135.859 60.7594H135.747C135.574 60.7594 135.278 60.8459 134.858 61.0189C134.24 61.1672 133.152 61.5874 131.595 62.2795C130.087 62.9716 129.21 63.3177 128.962 63.3177C128.765 63.3177 128.604 63.2373 128.48 63.0767C128.357 62.916 128.295 62.7368 128.295 62.5391C128.295 62.2177 128.468 61.9829 128.814 61.8346C129.556 61.5627 130.309 61.2538 131.076 60.9077C132.435 60.2403 133.844 59.7213 135.302 59.3505C135.673 59.2516 136.069 59.2022 136.489 59.2022C136.959 59.2022 137.317 59.4123 137.564 59.8325C137.638 60.0055 137.675 60.1785 137.675 60.3516V60.4628L137.527 61.1672L137.416 61.6492C137.465 61.5504 138.083 61.0189 139.27 60.055C140.332 59.1404 141.568 58.6831 142.977 58.6831C144.485 58.6831 145.239 59.3134 145.239 60.574C145.239 61.3155 144.992 62.0076 144.497 62.6503C145.931 62.8975 147.748 63.0211 149.948 63.0211C150.467 63.0211 151.375 63.0025 152.673 62.9654C153.97 62.9284 155.608 62.5391 157.585 61.7975L157.808 61.7605C158.03 61.7605 158.203 61.847 158.327 62.02C158.426 62.1683 158.475 62.329 158.475 62.502V62.6132C158.475 62.8851 158.327 63.0952 158.03 63.2435C155.509 64.1086 152.951 64.5412 150.355 64.5412C149.169 64.5412 146.821 64.3805 143.311 64.0592C142.495 64.8502 141.754 65.2456 141.086 65.2456C140.765 65.2456 140.475 65.1282 140.215 64.8934C139.956 64.6586 139.826 64.3929 139.826 64.0963C139.826 63.8491 139.9 63.6019 140.048 63.3548C140.493 62.7368 141.259 62.4278 142.347 62.4278L142.755 62.4649C143.101 62.0694 143.397 61.5998 143.645 61.056C143.719 60.883 143.756 60.7594 143.756 60.6853C143.756 60.5369 143.669 60.4195 143.496 60.333C143.323 60.2465 143.163 60.1909 143.014 60.1662C142.817 60.1662 142.582 60.2033 142.31 60.2774C140.95 60.6235 139.813 61.3279 138.899 62.3908C137.589 63.9974 136.341 66.4321 135.154 69.6948L134.932 70.2139C133.028 76.4922 131.879 79.6684 131.484 79.7425V79.7425Z" fill="#D6C2F2"/>
</svg>
